<?xml version="1.0" encoding="utf-8"?>
<!-- Generator: Adobe Illustrator 16.0.0, SVG Export Plug-In . SVG Version: 6.00 Build 0)  -->
<!DOCTYPE svg PUBLIC "-//W3C//DTD SVG 1.1//EN" "http://www.w3.org/Graphics/SVG/1.1/DTD/svg11.dtd">
<svg version="1.1" id="Layer_1" xmlns="http://www.w3.org/2000/svg" xmlns:xlink="http://www.w3.org/1999/xlink" x="0px" y="0px"
	 width="142.833px" height="80px" viewBox="0 0 142.833 80" enable-background="new 0 0 142.833 80" xml:space="preserve">
<g>
	<g>
		<g>
			<path fill="#FFFFFF" d="M69.369,63.219h-4.551V34.63c0-4.556-0.865-7.854-2.572-9.805c-1.674-1.911-4.496-2.88-8.39-2.88
				c-3.941,0-6.897,0.995-8.548,2.88c-1.707,1.95-2.572,5.249-2.572,9.805v28.589h-4.553V33.788c0-5.361,1.312-9.447,3.898-12.146
				c2.594-2.712,6.529-4.087,11.695-4.087s9.102,1.375,11.696,4.088c2.585,2.699,3.896,6.785,3.896,12.145V63.219z"/>
		</g>
		<g>
			<path fill="#FFFFFF" d="M95.933,63.219h-4.55V34.63c0-4.556-0.866-7.854-2.573-9.805c-1.673-1.911-4.496-2.88-8.389-2.88
				c-3.942,0-6.898,0.995-8.549,2.88c-1.707,1.951-2.572,5.25-2.572,9.805v28.589h-4.553V33.788c0-5.361,1.312-9.447,3.898-12.146
				c2.594-2.712,6.529-4.087,11.695-4.087s9.102,1.375,11.696,4.088c2.585,2.699,3.896,6.785,3.896,12.145V63.219z"/>
		</g>
	</g>
	<path fill="#FFFFFF" d="M15.593,63.219c-5.167,0-9.102-1.375-11.696-4.087C1.311,56.432,0,52.346,0,46.987V17.556h4.551v28.588
		c0,4.557,0.866,7.856,2.574,9.806c1.672,1.911,4.494,2.88,8.389,2.88c3.947,0,6.906-0.995,8.557-2.88
		c1.708-1.949,2.574-5.249,2.574-9.806V17.556h4.552v29.432c0,5.36-1.312,9.446-3.898,12.146
		C24.704,61.844,20.765,63.219,15.593,63.219z"/>
	<path fill="#FFFFFF" d="M142.095,33.415c0.512,2.721,0.557,4.854,0.582,6.094l0.004,0.174c0.024,1.092,0.009,13.409,0.001,18.653
		l-0.001,0.282c0,3.312-0.219,5.892-0.652,7.669c-0.442,1.813-1.189,3.502-2.219,5.019c-1.77,2.596-4.219,4.579-7.279,5.896
		c-3.014,1.298-6.617,1.955-10.71,1.955c-5.042,0-9.155-1.232-12.224-3.662c-3.135-2.481-4.752-5.823-4.809-9.933l-0.014-1.009
		h4.453l0.048,0.945c0.146,2.934,1.317,5.166,3.583,6.823c2.314,1.689,5.547,2.547,9.605,2.547c3.402,0,6.298-0.582,8.604-1.729
		c2.267-1.128,4.057-2.831,5.321-5.062c0.611-1.1,1.062-2.419,1.337-3.919c0.283-1.539,0.426-4.246,0.426-8.041v-0.51
		c-1.314,1.882-2.941,3.449-4.854,4.674c-2.985,1.908-6.521,2.875-10.51,2.875c-6.059,0-10.925-2.154-14.464-6.402
		c-3.496-4.194-5.268-9.953-5.268-17.117c0-2.226,0.17-4.314,0.51-6.26l4.736,0.011c-0.396,1.908-0.598,3.98-0.598,6.249
		c0,5.968,1.396,10.712,4.149,14.101c2.701,3.325,6.435,5.012,11.097,5.012c4.658,0,8.383-1.686,11.071-5.01
		c2.741-3.389,4.13-8.133,4.13-14.103c0-2.249-0.195-4.323-0.584-6.217L142.095,33.415z"/>
	<path fill="#C93500" d="M136.236,29.163c-0.6-1.36-1.338-2.584-2.214-3.668c-2.688-3.324-6.413-5.01-11.071-5.01
		c-4.662,0-8.395,1.687-11.097,5.012c-0.87,1.071-1.605,2.279-2.203,3.62l-4.995,0.007c0.875-2.513,2.107-4.715,3.691-6.59
		c3.553-4.204,8.465-6.336,14.604-6.336c4.072,0,7.663,0.989,10.674,2.941c3.064,1.984,5.527,5.971,5.879,6.811
		c0.047,0.109,0.119,0.251,0.211,0.428c0.314,0.616,0.768,1.523,1.225,2.755L136.236,29.163z"/>
</g>
</svg>
